HIERARCHY
ROOT Hips
{
	OFFSET 0.000000 0.000000 0.000000
	CHANNELS 6 Xposition Yposition Zposition Zrotation Xrotation Yrotation
	JOINT RightUpLeg
	{
		OFFSET -10.032200 0.000000 0.000000
		CHANNELS 3 Zrotation Xrotation Yrotation
		JOINT RightLeg
		{
			OFFSET 0.000000 -40.977000 0.000000
			CHANNELS 3 Zrotation Xrotation Yrotation
			JOINT RightFoot
			{
				OFFSET 0.000000 -38.933200 0.000000
				CHANNELS 3 Zrotation Xrotation Yrotation
				JOINT RightToe
				{
					OFFSET 0.000000 -1.977400 9.184000
					CHANNELS 3 Zrotation Xrotation Yrotation
					JOINT RightToeEnd
					{
						OFFSET 0.000000 2.335600 6.099100
						CHANNELS 3 Zrotation Xrotation Yrotation
						End Site
						{
						    OFFSET 0.000000 1.788000 4.669400
						}
					}
				}
			}
		}
	}
	JOINT LeftUpLeg
	{
		OFFSET 10.032200 0.000000 0.000000
		CHANNELS 3 Zrotation Xrotation Yrotation
		JOINT LeftLeg
		{
			OFFSET 0.000000 -40.977000 0.000000
			CHANNELS 3 Zrotation Xrotation Yrotation
			JOINT LeftFoot
			{
				OFFSET 0.000000 -38.933200 0.000000
				CHANNELS 3 Zrotation Xrotation Yrotation
				JOINT LeftToe
				{
					OFFSET 0.000000 -1.977400 9.184000
					CHANNELS 3 Zrotation Xrotation Yrotation
					JOINT LeftToeEnd
					{
						OFFSET 0.000000 2.335600 6.099100
						CHANNELS 3 Zrotation Xrotation Yrotation
						End Site
						{
						    OFFSET 0.000000 1.788000 4.669400
						}
					}
				}
			}
		}
	}
	JOINT Spine
	{
		OFFSET 0.000000 16.960900 0.000000
		CHANNELS 3 Zrotation Xrotation Yrotation
		JOINT Spine1
		{
			OFFSET 0.000000 13.413900 0.000000
			CHANNELS 3 Zrotation Xrotation Yrotation
			JOINT Spine2
			{
				OFFSET 0.000000 10.384400 0.000000
				CHANNELS 3 Zrotation Xrotation Yrotation
				JOINT LeftShoulder
				{
					OFFSET 2.000000 10.384400 0.000000
					CHANNELS 3 Zrotation Xrotation Yrotation
					JOINT LeftArm
					{
						OFFSET 15.649100 0.000000 0.000000
						CHANNELS 3 Zrotation Xrotation Yrotation
						JOINT LeftForeArm
						{
							OFFSET 0.000000 -26.641600 0.000000
							CHANNELS 3 Zrotation Xrotation Yrotation
							JOINT LeftHand
							{
								OFFSET 0.000000 -23.740600 0.000000
								CHANNELS 3 Zrotation Xrotation Yrotation
								JOINT LeftFinger0
								{
									OFFSET 0.000000 -7.620900 0.000000
									CHANNELS 3 Zrotation Xrotation Yrotation
									End Site
									{
									    OFFSET 0.000000 -5.000000 0.000000
									}
								}
							}
						}
					}
				}
				JOINT RightShoulder
				{
					OFFSET -2.000000 10.384400 0.000000
					CHANNELS 3 Zrotation Xrotation Yrotation
					JOINT RightArm
					{
						OFFSET -15.649100 0.000000 0.000000
						CHANNELS 3 Zrotation Xrotation Yrotation
						JOINT RightForeArm
						{
							OFFSET 0.000000 -26.641600 0.000000
							CHANNELS 3 Zrotation Xrotation Yrotation
							JOINT RightHand
							{
								OFFSET 0.000000 -23.740600 0.000000
								CHANNELS 3 Zrotation Xrotation Yrotation
								JOINT RightFinger0
								{
									OFFSET 0.000000 -7.620900 0.000000
									CHANNELS 3 Zrotation Xrotation Yrotation
									End Site
									{
									    OFFSET 0.000000 -5.000000 0.000000
									}
								}
							}
						}
					}
				}
				JOINT Neck
				{
					OFFSET 0.000000 10.384400 0.000000
					CHANNELS 3 Zrotation Xrotation Yrotation
					JOINT Head
					{
						OFFSET 0.000000 10.146900 0.000000
						CHANNELS 3 Zrotation Xrotation Yrotation
						JOINT HeadTip
						{
							OFFSET 0.000000 10.000000 0.000000
							CHANNELS 3 Zrotation Xrotation Yrotation
							End Site
							{
							    OFFSET 0.000000 5.000000 0.000000
							}
						}
					}
				}
			}
		}
	}
}
MOTION
Frames:	7
Frame Time:	0.033332
77.716100 86.377300 -66.444300 -0.438643 0.726519 -1.533157 -1.513772 -1.283705 -30.780088 0.000000 5.863962 0.000000 4.656250 13.182901 -3.398686 0.000000 -0.086312 -0.000000 -0.000000 -0.000000 -0.000000 1.222337 -2.971878 27.393815 -0.000000 7.902070 -0.000000 -0.129553 14.829728 -10.887594 -0.000000 -3.324771 0.000000 -0.000000 -0.000000 -0.000000 1.447584 -2.047918 1.002550 -0.000000 1.043512 -0.000000 0.000000 0.000000 -0.000000 2.945061 0.000000 3.093225 91.083316 -10.198314 9.298782 -0.000000 -9.291534 -0.000000 0.446821 8.714437 -14.370988 0.000000 0.000000 -0.000000 -6.168369 -0.000000 -3.260873 -91.229701 -15.062448 -14.518161 -0.000004 -1.402977 -0.000000 -1.245996 16.361755 22.161488 -0.000000 0.000000 -0.000000 0.000000 0.000000 -0.000000 -3.398746 -0.481083 1.154023 -0.000000 0.000000 -0.000000 
77.689900 86.373100 -66.517200 -0.420775 0.588941 -1.461855 -1.519621 -1.212038 -30.782635 -0.000000 5.915733 -0.000000 4.594755 13.120823 -3.483256 -0.000000 -0.050230 -0.000000 0.000000 -0.000000 -0.000000 1.230746 -2.936304 27.311690 -0.000000 7.992832 -0.000000 -0.009572 14.788859 -10.855695 -0.000000 -3.332163 -0.000000 0.000000 0.000000 0.000000 1.465343 -2.075176 1.015267 0.000000 1.081339 -0.000000 0.000000 -0.000000 -0.000000 2.891641 -0.000000 3.114351 91.138678 -10.226795 9.304129 0.000000 -9.319557 0.000000 0.305568 8.635288 -14.445874 0.000000 -0.000000 -0.000000 -6.274001 0.000000 -3.370685 -91.275963 -15.140457 -14.500212 -0.000004 -1.420820 -0.000000 -1.235740 16.376364 21.971065 0.000000 0.000000 -0.000000 0.000000 -0.000000 -0.000000 -3.373980 0.176487 1.166516 0.000000 0.000000 0.000000 
77.652900 86.364300 -66.591600 -0.400399 0.427082 -1.364281 -1.540921 -1.135507 -30.783568 0.000000 6.028120 -0.000000 4.565047 13.049751 -3.547594 0.000000 -0.112012 -0.000000 0.000000 0.000000 -0.000000 1.262619 -2.896663 27.243251 -0.000000 8.117928 -0.000000 -0.071859 14.840398 -10.906894 0.000000 -3.364342 -0.000000 0.000000 0.000000 -0.000000 1.434492 -2.068606 0.991344 0.000000 1.119858 0.000000 0.000000 0.000000 0.000000 2.896288 -0.000000 3.175474 91.153134 -10.356002 9.287334 0.000000 -9.301048 -0.000000 0.100256 8.532223 -14.744792 0.000000 0.000000 -0.000000 -6.336100 0.000000 -3.417680 -91.251177 -15.103741 -14.499542 -0.000004 -1.563598 -0.000000 -1.346532 16.275454 22.006019 0.000000 0.000000 0.000000 0.000000 0.000000 0.000000 -3.333920 0.730746 1.167367 0.000000 -0.000000 -0.000000 
77.614300 86.355900 -66.672500 -0.399494 0.256741 -1.259688 -1.560061 -1.081668 -30.815322 -0.000000 6.198150 -0.000000 4.523158 12.973011 -3.620131 -0.000000 -0.135182 0.000000 -0.000000 -0.000000 -0.000000 1.310258 -2.852733 27.189117 -0.000000 8.251600 -0.000000 -0.016943 14.774237 -10.944133 -0.000000 -3.201429 -0.000000 -0.000000 0.000000 0.000000 1.411715 -2.041941 0.957296 0.000000 1.181626 -0.000000 0.000000 0.000000 -0.000000 2.901379 0.000000 3.179344 91.116767 -10.434380 9.363973 0.000000 -9.286497 -0.000000 0.122032 8.485063 -14.705881 -0.000000 0.000000 -0.000000 -6.314557 -0.000000 -3.470527 -91.282120 -15.113592 -14.429465 -0.000004 -1.582050 -0.000000 -1.369854 16.278529 21.915336 -0.000000 0.000000 -0.000000 0.000000 0.000000 -0.000000 -3.260859 1.148782 1.085221 0.000000 -0.000000 -0.000000 
77.569000 86.347400 -66.761400 -0.402824 0.095167 -1.143537 -1.539410 -0.999411 -30.801298 -0.000000 6.267958 -0.000000 4.465426 12.936965 -3.725536 -0.000000 -0.218439 -0.000000 0.000000 0.000000 -0.000000 1.361256 -2.820236 27.045572 -0.000000 8.362721 0.000000 -0.044744 14.803747 -10.915035 0.000000 -3.215700 -0.000000 -0.000000 -0.000000 -0.000000 1.366482 -2.022111 0.903740 -0.000000 1.289403 -0.000000 0.000000 0.000000 -0.000000 2.927683 -0.000000 3.168708 91.082461 -10.497043 9.280701 -0.000000 -9.323544 0.000000 0.001239 8.445830 -14.819234 -0.000000 0.000000 -0.000000 -6.262221 0.000000 -3.501874 -91.269475 -15.095689 -14.495033 -0.000004 -1.554636 -0.000000 -1.321510 16.339688 21.914595 0.000000 0.000000 -0.000000 0.000000 0.000000 -0.000000 -3.207089 1.416369 0.964817 -0.000000 0.000000 -0.000000 
77.526800 86.337900 -66.863900 -0.403738 -0.063211 -1.084649 -1.546877 -0.971074 -30.794400 -0.000000 6.429040 -0.000000 4.355545 12.895953 -3.776195 0.000000 -0.287617 0.000000 -0.000000 0.000000 -0.000000 1.397810 -2.770618 27.015396 -0.000000 8.428284 -0.000000 0.013450 14.792664 -10.912852 0.000000 -3.227725 -0.000000 -0.000000 0.000000 0.000000 1.315333 -1.961678 0.867887 0.000000 1.376997 -0.000000 0.000000 0.000000 -0.000000 2.984473 0.000000 3.163162 90.978243 -10.552987 9.275908 -0.000000 -9.307087 0.000000 0.033082 8.303813 -14.785883 -0.000000 0.000000 0.000000 -6.230719 0.000000 -3.507094 -91.184541 -15.095943 -14.425256 -0.000004 -1.517875 -0.000000 -1.267528 16.434286 21.899576 -0.000000 -0.000000 -0.000000 0.000000 0.000000 -0.000000 -3.218822 1.563576 0.944697 0.000000 0.000000 -0.000000 
77.491900 86.330500 -66.977900 -0.419171 -0.178750 -1.082908 -1.536183 -0.978534 -30.803521 -0.000000 6.540189 0.000000 4.389644 12.830033 -3.767292 0.000000 -0.187635 -0.000000 -0.000000 0.000000 -0.000000 1.452678 -2.776298 26.980710 -0.000000 8.516871 -0.000000 0.054856 14.799330 -10.882021 -0.000000 -3.303625 -0.000000 -0.000000 0.000000 -0.000000 1.300309 -1.926628 0.880113 -0.000000 1.437321 -0.000000 -0.000000 0.000000 0.000000 3.018477 -0.000000 3.156384 90.849898 -10.638564 9.366592 -0.000000 -9.264897 -0.000000 0.043914 8.254271 -14.729268 0.000000 -0.000000 0.000000 -6.223351 0.000000 -3.492044 -91.066486 -15.095773 -14.405619 -0.000004 -1.470456 -0.000000 -1.188004 16.483688 22.118964 -0.000000 0.000000 0.000000 -0.000000 0.000000 0.000000 -3.190008 1.673990 1.016855 0.000000 0.000000 -0.000000 
